{"asset":{"version":"2.0","generator":"babylon.js glTF exporter for Autodesk MAYA 2022.5 v20240312.5"},"scene":0,"scenes":[{"nodes":[0]}],"nodes":[{"children":[1,2,3,4,5,6,7,8],"scale":[60.0,60.0,60.0],"name":"root"},{"mesh":0,"translation":[0.0,-0.01262469,0.0],"scale":[23.6538925,0.416651636,23.6538925],"name":"pCube1"},{"mesh":1,"translation":[0.006244129,0.08697017,-0.11242912],"rotation":[0.707106769,0.0,0.0,0.707106769],"scale":[26.5788631,0.468173534,26.5788631],"name":"pCube2"},{"mesh":2,"translation":[0.0,0.204897955,0.0],"scale":[27.4414482,0.483367532,27.4414482],"name":"pCube3"},{"mesh":3,"translation":[0.0113605233,0.08697017,0.120954],"rotation":[0.707106769,0.0,0.0,0.707106769],"scale":[28.0190716,0.4935421,28.0190716],"name":"pCube4"},{"mesh":4,"translation":[-0.114572667,0.08697017,-0.000243260263],"rotation":[0.5,-0.5,0.5,0.5],"scale":[24.6778812,0.434688717,24.6778812],"name":"pCube5"},{"translation":[0.128926,0.406212,0.0194533672],"rotation":[0.292731464,-0.706351161,-0.4856268,-0.423725128],"scale":[9.615635,9.615635,9.615635],"name":"aiAreaLight1"},{"mesh":5,"translation":[0.0,0.0795759261,0.00119662867],"scale":[7.65743446,7.65743446,7.65743446],"name":"pCube6"},{"mesh":6,"translation":[0.136915535,0.08697017,-0.000243260263],"rotation":[0.5,-0.5,0.5,0.5],"scale":[24.6778812,0.434688717,24.6778812],"name":"pCube7"}],"meshes":[{"primitives":[{"attributes":{"POSITION":1,"TANGENT":2,"NORMAL":3,"TEXCOORD_0":4},"indices":0,"material":0}],"name":"pCube1"},{"primitives":[{"attributes":{"POSITION":6,"TANGENT":7,"NORMAL":8,"TEXCOORD_0":9},"indices":5,"material":1}],"name":"pCube2"},{"primitives":[{"attributes":{"POSITION":11,"TANGENT":12,"NORMAL":13,"TEXCOORD_0":14},"indices":10,"material":2}],"name":"pCube3"},{"primitives":[{"attributes":{"POSITION":16,"TANGENT":17,"NORMAL":18,"TEXCOORD_0":19},"indices":15,"material":3}],"name":"pCube4"},{"primitives":[{"attributes":{"POSITION":21,"TANGENT":22,"NORMAL":23,"TEXCOORD_0":24},"indices":20,"material":4}],"name":"pCube5"},{"primitives":[{"attributes":{"POSITION":26,"TANGENT":27,"NORMAL":28,"TEXCOORD_0":29},"indices":25,"material":5}],"name":"pCube6"},{"primitives":[{"attributes":{"POSITION":31,"TANGENT":32,"NORMAL":33,"TEXCOORD_0":34},"indices":30,"material":6}],"name":"pCube7"}],"accessors":[{"bufferView":0,"componentType":5123,"count":36,"type":"SCALAR","name":"accessorIndices"},{"bufferView":1,"componentType":5126,"count":36,"max":[0.005,0.005,0.005],"min":[-0.005,-0.005,-0.005],"type":"VEC3","name":"accessorPositions"},{"bufferView":2,"componentType":5126,"count":36,"type":"VEC4","name":"accessorTangents"},{"bufferView":1,"byteOffset":432,"componentType":5126,"count":36,"type":"VEC3","name":"accessorNormals"},{"bufferView":3,"componentType":5126,"count":36,"type":"VEC2","name":"accessorUVs"},{"bufferView":0,"byteOffset":72,"componentType":5123,"count":36,"type":"SCALAR","name":"accessorIndices"},{"bufferView":1,"byteOffset":864,"componentType":5126,"count":36,"max":[0.005,0.005,0.005],"min":[-0.005,-0.005,-0.005],"type":"VEC3","name":"accessorPositions"},{"bufferView":2,"byteOffset":576,"componentType":5126,"count":36,"type":"VEC4","name":"accessorTangents"},{"bufferView":1,"byteOffset":1296,"componentType":5126,"count":36,"type":"VEC3","name":"accessorNormals"},{"bufferView":3,"byteOffset":288,"componentType":5126,"count":36,"type":"VEC2","name":"accessorUVs"},{"bufferView":0,"byteOffset":144,"componentType":5123,"count":36,"type":"SCALAR","name":"accessorIndices"},{"bufferView":1,"byteOffset":1728,"componentType":5126,"count":36,"max":[0.005,0.005,0.005],"min":[-0.005,-0.005,-0.005],"type":"VEC3","name":"accessorPositions"},{"bufferView":2,"byteOffset":1152,"componentType":5126,"count":36,"type":"VEC4","name":"accessorTangents"},{"bufferView":1,"byteOffset":2160,"componentType":5126,"count":36,"type":"VEC3","name":"accessorNormals"},{"bufferView":3,"byteOffset":576,"componentType":5126,"count":36,"type":"VEC2","name":"accessorUVs"},{"bufferView":0,"byteOffset":216,"componentType":5123,"count":36,"type":"SCALAR","name":"accessorIndices"},{"bufferView":1,"byteOffset":2592,"componentType":5126,"count":36,"max":[0.005,0.005,0.005],"min":[-0.005,-0.005,-0.005],"type":"VEC3","name":"accessorPositions"},{"bufferView":2,"byteOffset":1728,"componentType":5126,"count":36,"type":"VEC4","name":"accessorTangents"},{"bufferView":1,"byteOffset":3024,"componentType":5126,"count":36,"type":"VEC3","name":"accessorNormals"},{"bufferView":3,"byteOffset":864,"componentType":5126,"count":36,"type":"VEC2","name":"accessorUVs"},{"bufferView":0,"byteOffset":288,"componentType":5123,"count":36,"type":"SCALAR","name":"accessorIndices"},{"bufferView":1,"byteOffset":3456,"componentType":5126,"count":36,"max":[0.005,0.005,0.005],"min":[-0.005,-0.005,-0.005],"type":"VEC3","name":"accessorPositions"},{"bufferView":2,"byteOffset":2304,"componentType":5126,"count":36,"type":"VEC4","name":"accessorTangents"},{"bufferView":1,"byteOffset":3888,"componentType":5126,"count":36,"type":"VEC3","name":"accessorNormals"},{"bufferView":3,"byteOffset":1152,"componentType":5126,"count":36,"type":"VEC2","name":"accessorUVs"},{"bufferView":0,"byteOffset":360,"componentType":5123,"count":36,"type":"SCALAR","name":"accessorIndices"},{"bufferView":1,"byteOffset":4320,"componentType":5126,"count":36,"max":[0.005,0.005,0.005],"min":[-0.005,-0.005,-0.005],"type":"VEC3","name":"accessorPositions"},{"bufferView":2,"byteOffset":2880,"componentType":5126,"count":36,"type":"VEC4","name":"accessorTangents"},{"bufferView":1,"byteOffset":4752,"componentType":5126,"count":36,"type":"VEC3","name":"accessorNormals"},{"bufferView":3,"byteOffset":1440,"componentType":5126,"count":36,"type":"VEC2","name":"accessorUVs"},{"bufferView":0,"byteOffset":432,"componentType":5123,"count":36,"type":"SCALAR","name":"accessorIndices"},{"bufferView":1,"byteOffset":5184,"componentType":5126,"count":36,"max":[0.005,0.005,0.005],"min":[-0.005,-0.005,-0.005],"type":"VEC3","name":"accessorPositions"},{"bufferView":2,"byteOffset":3456,"componentType":5126,"count":36,"type":"VEC4","name":"accessorTangents"},{"bufferView":1,"byteOffset":5616,"componentType":5126,"count":36,"type":"VEC3","name":"accessorNormals"},{"bufferView":3,"byteOffset":1728,"componentType":5126,"count":36,"type":"VEC2","name":"accessorUVs"}],"bufferViews":[{"buffer":0,"byteLength":504,"name":"bufferViewScalar"},{"buffer":0,"byteOffset":504,"byteLength":6048,"byteStride":12,"name":"bufferViewFloatVec3"},{"buffer":0,"byteOffset":6552,"byteLength":4032,"byteStride":16,"name":"bufferViewFloatVec4"},{"buffer":0,"byteOffset":10584,"byteLength":2016,"byteStride":8,"name":"bufferViewFloatVec2"}],"buffers":[{"uri":"CubemapTest.bin","byteLength":12600}],"materials":[{"pbrMetallicRoughness":{"baseColorFactor":[1.0,0.9505,0.0,1.0],"metallicFactor":0.0,"roughnessFactor":0.450053632},"name":"lambert37"},{"pbrMetallicRoughness":{"baseColorFactor":[0.0192,1.0,0.0,1.0],"metallicFactor":0.0,"roughnessFactor":0.450053632},"name":"lambert32"},{"pbrMetallicRoughness":{"baseColorFactor":[0.5,0.5,0.5,1.0],"metallicFactor":0.0,"roughnessFactor":0.450053632},"name":"lambert36"},{"pbrMetallicRoughness":{"baseColorFactor":[1.0,0.0,0.0,1.0],"metallicFactor":0.0,"roughnessFactor":0.450053632},"name":"lambert33"},{"pbrMetallicRoughness":{"baseColorFactor":[0.042,0.0,1.0,1.0],"metallicFactor":0.0,"roughnessFactor":0.450053632},"name":"lambert31"},{"pbrMetallicRoughness":{"baseColorFactor":[0.6354,0.0,1.0,1.0],"metallicFactor":0.0,"roughnessFactor":0.450053632},"name":"lambert35"},{"pbrMetallicRoughness":{"baseColorFactor":[0.0,0.9243,1.0,1.0],"metallicFactor":0.0,"roughnessFactor":0.450053632},"name":"lambert38"}]}