{"asset":{"version":"2.0","generator":"babylon.js glTF exporter for Autodesk MAYA 2022.5 v20240312.5"},"scene":0,"scenes":[{"nodes":[0]}],"nodes":[{"children":[1,2],"scale":[100.0,100.0,100.0],"name":"root"},{"mesh":0,"scale":[5.39420462,5.39420462,5.39420462],"name":"BotWall"},{"mesh":1,"translation":[0.0,0.0340479761,0.0],"scale":[2.96854,2.96854,2.96854],"name":"pCube1"}],"meshes":[{"primitives":[{"attributes":{"POSITION":1,"TANGENT":2,"NORMAL":3,"TEXCOORD_0":4},"indices":0,"material":0}],"name":"BotWall"},{"primitives":[{"attributes":{"POSITION":6,"TANGENT":7,"NORMAL":8,"TEXCOORD_0":9},"indices":5,"material":1}],"name":"pCube1"}],"accessors":[{"bufferView":0,"componentType":5123,"count":6,"type":"SCALAR","name":"accessorIndices"},{"bufferView":1,"componentType":5126,"count":6,"max":[0.0749999955,0.0,0.0749999955],"min":[-0.0749999955,0.0,-0.0749999955],"type":"VEC3","name":"accessorPositions"},{"bufferView":2,"componentType":5126,"count":6,"type":"VEC4","name":"accessorTangents"},{"bufferView":1,"byteOffset":72,"componentType":5126,"count":6,"type":"VEC3","name":"accessorNormals"},{"bufferView":3,"componentType":5126,"count":6,"type":"VEC2","name":"accessorUVs"},{"bufferView":0,"byteOffset":12,"componentType":5123,"count":36,"type":"SCALAR","name":"accessorIndices"},{"bufferView":1,"byteOffset":144,"componentType":5126,"count":36,"max":[0.005,0.005,0.005],"min":[-0.005,-0.005,-0.005],"type":"VEC3","name":"accessorPositions"},{"bufferView":2,"byteOffset":96,"componentType":5126,"count":36,"type":"VEC4","name":"accessorTangents"},{"bufferView":1,"byteOffset":576,"componentType":5126,"count":36,"type":"VEC3","name":"accessorNormals"},{"bufferView":3,"byteOffset":48,"componentType":5126,"count":36,"type":"VEC2","name":"accessorUVs"}],"bufferViews":[{"buffer":0,"byteLength":84,"name":"bufferViewScalar"},{"buffer":0,"byteOffset":84,"byteLength":1008,"byteStride":12,"name":"bufferViewFloatVec3"},{"buffer":0,"byteOffset":1092,"byteLength":672,"byteStride":16,"name":"bufferViewFloatVec4"},{"buffer":0,"byteOffset":1764,"byteLength":336,"byteStride":8,"name":"bufferViewFloatVec2"}],"buffers":[{"uri":"BoxAndPlane.bin","byteLength":2100}],"materials":[{"pbrMetallicRoughness":{"baseColorFactor":[0.5,0.5,0.5,1.0],"metallicFactor":0.0,"roughnessFactor":0.450053632},"name":"TopWallMat"},{"pbrMetallicRoughness":{"baseColorTexture":{"index":0},"metallicFactor":0.0,"roughnessFactor":0.450053632},"name":"lambert1"}],"textures":[{"sampler":0,"source":0,"name":"chillguy.jpg"}],"images":[{"uri":"chillguy.jpg"}],"samplers":[{"magFilter":9729,"minFilter":9987}]}