{"asset":{"version":"2.0","generator":"babylon.js glTF exporter for Autodesk MAYA 2022.5 v20240312.5"},"scene":0,"scenes":[{"nodes":[0]}],"nodes":[{"children":[1,2,3,4,5,6,7],"scale":[60.0,60.0,60.0],"name":"root"},{"translation":[0.128926,0.406212,0.0194533672],"rotation":[0.292731464,-0.706351161,-0.4856268,-0.423725128],"scale":[9.615635,9.615635,9.615635],"name":"aiAreaLight1"},{"mesh":0,"translation":[0.0,0.0792721659,0.0],"scale":[3.95130134,3.95130134,3.95130134],"name":"pSphere2"},{"mesh":1,"translation":[0.0,-0.008053332,0.0],"scale":[27.5686741,0.416969478,27.5686741],"name":"pCube8"},{"mesh":2,"translation":[0.0,0.182377309,0.0],"scale":[27.5686741,0.416969478,27.5686741],"name":"pCube9"},{"mesh":3,"translation":[0.130788952,0.102427021,0.0],"rotation":[0.0,0.0,-0.707106769,0.707106769],"scale":[27.5686741,0.416969478,27.5686741],"name":"pCube10"},{"mesh":4,"translation":[-0.136031032,0.102427021,0.0],"rotation":[0.0,0.0,-0.707106769,0.707106769],"scale":[27.5686741,0.416969478,27.5686741],"name":"pCube11"},{"mesh":5,"translation":[0.000940477767,0.102427021,0.123344235],"rotation":[0.5,-0.5,-0.5,0.5],"scale":[27.5686741,0.416969478,27.5686741],"name":"pCube12"}],"meshes":[{"primitives":[{"attributes":{"POSITION":1,"TANGENT":2,"NORMAL":3,"TEXCOORD_0":4},"indices":0,"material":0}],"name":"pSphere2"},{"primitives":[{"attributes":{"POSITION":6,"TANGENT":7,"NORMAL":8,"TEXCOORD_0":9},"indices":5,"material":1}],"name":"pCube8"},{"primitives":[{"attributes":{"POSITION":11,"TANGENT":12,"NORMAL":13,"TEXCOORD_0":14},"indices":10,"material":1}],"name":"pCube9"},{"primitives":[{"attributes":{"POSITION":16,"TANGENT":17,"NORMAL":18,"TEXCOORD_0":19},"indices":15,"material":2}],"name":"pCube10"},{"primitives":[{"attributes":{"POSITION":21,"TANGENT":22,"NORMAL":23,"TEXCOORD_0":24},"indices":20,"material":3}],"name":"pCube11"},{"primitives":[{"attributes":{"POSITION":26,"TANGENT":27,"NORMAL":28,"TEXCOORD_0":29},"indices":25,"material":4}],"name":"pCube12"}],"accessors":[{"bufferView":0,"componentType":5123,"count":2280,"type":"SCALAR","name":"accessorIndices"},{"bufferView":1,"componentType":5126,"count":2280,"max":[0.01,0.01,0.0100000007],"min":[-0.0100000026,-0.01,-0.0100000044],"type":"VEC3","name":"accessorPositions"},{"bufferView":2,"componentType":5126,"count":2280,"type":"VEC4","name":"accessorTangents"},{"bufferView":1,"byteOffset":27360,"componentType":5126,"count":2280,"type":"VEC3","name":"accessorNormals"},{"bufferView":3,"componentType":5126,"count":2280,"type":"VEC2","name":"accessorUVs"},{"bufferView":0,"byteOffset":4560,"componentType":5123,"count":36,"type":"SCALAR","name":"accessorIndices"},{"bufferView":1,"byteOffset":54720,"componentType":5126,"count":36,"max":[0.005,0.005,0.005],"min":[-0.005,-0.005,-0.005],"type":"VEC3","name":"accessorPositions"},{"bufferView":2,"byteOffset":36480,"componentType":5126,"count":36,"type":"VEC4","name":"accessorTangents"},{"bufferView":1,"byteOffset":55152,"componentType":5126,"count":36,"type":"VEC3","name":"accessorNormals"},{"bufferView":3,"byteOffset":18240,"componentType":5126,"count":36,"type":"VEC2","name":"accessorUVs"},{"bufferView":0,"byteOffset":4632,"componentType":5123,"count":36,"type":"SCALAR","name":"accessorIndices"},{"bufferView":1,"byteOffset":55584,"componentType":5126,"count":36,"max":[0.005,0.005,0.005],"min":[-0.005,-0.005,-0.005],"type":"VEC3","name":"accessorPositions"},{"bufferView":2,"byteOffset":37056,"componentType":5126,"count":36,"type":"VEC4","name":"accessorTangents"},{"bufferView":1,"byteOffset":56016,"componentType":5126,"count":36,"type":"VEC3","name":"accessorNormals"},{"bufferView":3,"byteOffset":18528,"componentType":5126,"count":36,"type":"VEC2","name":"accessorUVs"},{"bufferView":0,"byteOffset":4704,"componentType":5123,"count":36,"type":"SCALAR","name":"accessorIndices"},{"bufferView":1,"byteOffset":56448,"componentType":5126,"count":36,"max":[0.005,0.005,0.005],"min":[-0.005,-0.005,-0.005],"type":"VEC3","name":"accessorPositions"},{"bufferView":2,"byteOffset":37632,"componentType":5126,"count":36,"type":"VEC4","name":"accessorTangents"},{"bufferView":1,"byteOffset":56880,"componentType":5126,"count":36,"type":"VEC3","name":"accessorNormals"},{"bufferView":3,"byteOffset":18816,"componentType":5126,"count":36,"type":"VEC2","name":"accessorUVs"},{"bufferView":0,"byteOffset":4776,"componentType":5123,"count":36,"type":"SCALAR","name":"accessorIndices"},{"bufferView":1,"byteOffset":57312,"componentType":5126,"count":36,"max":[0.005,0.005,0.005],"min":[-0.005,-0.005,-0.005],"type":"VEC3","name":"accessorPositions"},{"bufferView":2,"byteOffset":38208,"componentType":5126,"count":36,"type":"VEC4","name":"accessorTangents"},{"bufferView":1,"byteOffset":57744,"componentType":5126,"count":36,"type":"VEC3","name":"accessorNormals"},{"bufferView":3,"byteOffset":19104,"componentType":5126,"count":36,"type":"VEC2","name":"accessorUVs"},{"bufferView":0,"byteOffset":4848,"componentType":5123,"count":36,"type":"SCALAR","name":"accessorIndices"},{"bufferView":1,"byteOffset":58176,"componentType":5126,"count":36,"max":[0.005,0.005,0.005],"min":[-0.005,-0.005,-0.005],"type":"VEC3","name":"accessorPositions"},{"bufferView":2,"byteOffset":38784,"componentType":5126,"count":36,"type":"VEC4","name":"accessorTangents"},{"bufferView":1,"byteOffset":58608,"componentType":5126,"count":36,"type":"VEC3","name":"accessorNormals"},{"bufferView":3,"byteOffset":19392,"componentType":5126,"count":36,"type":"VEC2","name":"accessorUVs"}],"bufferViews":[{"buffer":0,"byteLength":4920,"name":"bufferViewScalar"},{"buffer":0,"byteOffset":4920,"byteLength":59040,"byteStride":12,"name":"bufferViewFloatVec3"},{"buffer":0,"byteOffset":63960,"byteLength":39360,"byteStride":16,"name":"bufferViewFloatVec4"},{"buffer":0,"byteOffset":103320,"byteLength":19680,"byteStride":8,"name":"bufferViewFloatVec2"}],"buffers":[{"uri":"CornellSphere.bin","byteLength":123000}],"materials":[{"pbrMetallicRoughness":{"baseColorFactor":[0.0,0.4544,1.0,1.0],"metallicFactor":0.0,"roughnessFactor":0.450053632},"name":"lambert44"},{"pbrMetallicRoughness":{"baseColorFactor":[0.5,0.5,0.5,1.0],"metallicFactor":0.0,"roughnessFactor":0.450053632},"name":"lambert40"},{"pbrMetallicRoughness":{"baseColorFactor":[1.0,0.0,0.0,1.0],"metallicFactor":0.0,"roughnessFactor":0.450053632},"name":"lambert41"},{"pbrMetallicRoughness":{"baseColorFactor":[0.0994,1.0,0.0,1.0],"metallicFactor":0.0,"roughnessFactor":0.450053632},"name":"lambert42"},{"pbrMetallicRoughness":{"baseColorFactor":[0.5,0.5,0.5,1.0],"metallicFactor":0.0,"roughnessFactor":0.450053632},"name":"lambert43"}]}