{"asset":{"version":"2.0","generator":"babylon.js glTF exporter for Autodesk MAYA 2022.5 v20240312.5"},"scene":0,"scenes":[{"nodes":[0]}],"nodes":[{"children":[1,2,3,4],"scale":[60.0,60.0,60.0],"name":"root"},{"mesh":0,"translation":[0.0,-0.0005596008,0.0],"scale":[17.25336,0.303909421,17.25336],"name":"pCube1"},{"mesh":1,"translation":[0.0,0.08697017,0.08729421],"rotation":[0.707106769,0.0,0.0,0.707106769],"scale":[17.25336,0.303909421,17.25336],"name":"pCube4"},{"translation":[0.128926,0.406212,0.0194533672],"rotation":[0.292731464,-0.706351161,-0.4856268,-0.423725128],"scale":[9.615635,9.615635,9.615635],"name":"aiAreaLight1"},{"mesh":2,"translation":[0.0,0.06500357,0.00694000162],"scale":[3.07161784,3.07161784,3.07161784],"name":"pSphere1"}],"meshes":[{"primitives":[{"attributes":{"POSITION":1,"TANGENT":2,"NORMAL":3,"TEXCOORD_0":4},"indices":0,"material":0}],"name":"pCube1"},{"primitives":[{"attributes":{"POSITION":6,"TANGENT":7,"NORMAL":8,"TEXCOORD_0":9},"indices":5,"material":1}],"name":"pCube4"},{"primitives":[{"attributes":{"POSITION":11,"TANGENT":12,"NORMAL":13,"TEXCOORD_0":14},"indices":10,"material":2}],"name":"pSphere1"}],"accessors":[{"bufferView":0,"componentType":5123,"count":36,"type":"SCALAR","name":"accessorIndices"},{"bufferView":1,"componentType":5126,"count":36,"max":[0.005,0.005,0.005],"min":[-0.005,-0.005,-0.005],"type":"VEC3","name":"accessorPositions"},{"bufferView":2,"componentType":5126,"count":36,"type":"VEC4","name":"accessorTangents"},{"bufferView":1,"byteOffset":432,"componentType":5126,"count":36,"type":"VEC3","name":"accessorNormals"},{"bufferView":3,"componentType":5126,"count":36,"type":"VEC2","name":"accessorUVs"},{"bufferView":0,"byteOffset":72,"componentType":5123,"count":36,"type":"SCALAR","name":"accessorIndices"},{"bufferView":1,"byteOffset":864,"componentType":5126,"count":36,"max":[0.005,0.005,0.005],"min":[-0.005,-0.005,-0.005],"type":"VEC3","name":"accessorPositions"},{"bufferView":2,"byteOffset":576,"componentType":5126,"count":36,"type":"VEC4","name":"accessorTangents"},{"bufferView":1,"byteOffset":1296,"componentType":5126,"count":36,"type":"VEC3","name":"accessorNormals"},{"bufferView":3,"byteOffset":288,"componentType":5126,"count":36,"type":"VEC2","name":"accessorUVs"},{"bufferView":0,"byteOffset":144,"componentType":5123,"count":2280,"type":"SCALAR","name":"accessorIndices"},{"bufferView":1,"byteOffset":1728,"componentType":5126,"count":2280,"max":[0.01,0.01,0.0100000007],"min":[-0.0100000026,-0.01,-0.0100000044],"type":"VEC3","name":"accessorPositions"},{"bufferView":2,"byteOffset":1152,"componentType":5126,"count":2280,"type":"VEC4","name":"accessorTangents"},{"bufferView":1,"byteOffset":29088,"componentType":5126,"count":2280,"type":"VEC3","name":"accessorNormals"},{"bufferView":3,"byteOffset":576,"componentType":5126,"count":2280,"type":"VEC2","name":"accessorUVs"}],"bufferViews":[{"buffer":0,"byteLength":4704,"name":"bufferViewScalar"},{"buffer":0,"byteOffset":4704,"byteLength":56448,"byteStride":12,"name":"bufferViewFloatVec3"},{"buffer":0,"byteOffset":61152,"byteLength":37632,"byteStride":16,"name":"bufferViewFloatVec4"},{"buffer":0,"byteOffset":98784,"byteLength":18816,"byteStride":8,"name":"bufferViewFloatVec2"}],"buffers":[{"uri":"2PlaneBall.bin","byteLength":117600}],"materials":[{"pbrMetallicRoughness":{"baseColorFactor":[0.5,0.5,0.5,1.0],"metallicFactor":0.0,"roughnessFactor":0.450053632},"name":"lambert31"},{"pbrMetallicRoughness":{"baseColorFactor":[1.0,0.0,0.0,1.0],"metallicFactor":0.0,"roughnessFactor":0.450053632},"name":"lambert33"},{"pbrMetallicRoughness":{"baseColorFactor":[0.5,0.5,0.5,1.0],"metallicFactor":0.0,"roughnessFactor":0.450053632},"name":"lambert34"}]}